<svg xmlns="http://www.w3.org/2000/svg" viewBox="0 0 75.591 75.591" width="20mm" height="20mm"><path d="M2.295 57.333v3.924h16.42v10.17H2.295v3.869h17.252c1.662 0 3-1.338 3-3V60.333c0-1.662-1.338-3-3-3zM73.295 57.333v3.924H56.967v10.17h16.328v3.869H56.043c-1.662 0-3-1.338-3-3V60.333c0-1.662 1.338-3 3-3zM32.245 14.01c-6 0-10.9 4.901-10.9 10.901v16.5c0 5.2 3.6 9.5 8.5 10.7-.1.3-.1.5-.1.8v3c0 1.5 1 2.9 2.4 3.3.611.287.596.286 2.622.286V74.4h6.182V59.497c1.926 0 2.143 0 2.496-.186 1.4-.5 2.4-1.8 2.4-3.3v-3c0-.3 0-.5-.1-.8 4.9-1.1 8.5-5.5 8.5-10.7v-16.6c0-6-4.9-10.9-11-10.9zm0 3h11c4.4 0 7.9 3.601 7.9 7.901.115 5.439-.205 11.244.1 16.5 0 4.4-3.6 7.9-7.9 7.9h-11.1c-4.4 0-7.9-3.6-7.9-7.9v-16.5c0-4.4 3.6-7.9 7.9-7.9zm1 35.401h9.1c.2 0 .5.2.5.5v3c0 .3-.2.5-.5.5h-9.1c-.3 0-.5-.2-.5-.5v-3c0-.3.2-.5.5-.5zm2.975 7.086h3.45l-3.622 3.685v-3.52c0-.078.078-.165.172-.165zm3.45 2.469v1.437l-3.622 3.686V65.65zm0 3.906v1.437l-3.622 3.686v-1.438zm0 3.906l-.001 3.192c0 .095-.072.15-.16.15h-3.127z"/></svg>