<svg xmlns="http://www.w3.org/2000/svg" viewBox="0 0 75.591 75.591" width="20mm" height="20mm"><path d="M2.366 57.368v3.197H19.91v5.094h35.77v-5.094h17.544v-3.197H56.052a2.984 2.984 0 00-2.986 2.994v2.318h-30.54v-2.318a2.984 2.984 0 00-2.986-2.994zm0 14.746v3.181h70.858v-3.18c-24.15-.065-49.251-.004-70.858 0z"/><path d="M32.257.295c-5.988 0-10.879 4.89-10.879 10.879V27.64c0 5.19 3.593 9.48 8.483 10.678-.1.299-.1.5-.1.799v2.994c0 1.497.999 2.895 2.396 3.294.61.286.594.285 2.616.285v14.874h6.17V45.69c1.922 0 2.139 0 2.49-.186 1.398-.499 2.396-1.797 2.396-3.294v-2.994c0-.3 0-.498-.1-.797 4.89-1.098 8.484-5.49 8.484-10.68V11.174c0-5.988-4.89-10.879-10.978-10.879zm0 2.994h10.978c4.39 0 7.884 3.593 7.884 7.885.114 5.428-.205 11.221.1 16.467 0 4.391-3.594 7.884-7.885 7.884H32.257c-4.392 0-7.885-3.593-7.885-7.884V11.174c0-4.391 3.593-7.885 7.885-7.885zm.998 35.33h9.081c.2 0 .499.2.499.499v2.994c0 .3-.2.499-.499.499h-9.081c-.3 0-.5-.2-.5-.5v-2.993c0-.3.2-.5.5-.5zm2.968 7.072h3.443l-3.615 3.678v-3.513c0-.078.078-.165.172-.165zm3.443 2.463v1.435l-3.615 3.678v-1.434zm0 3.899v1.434l-3.615 3.679V55.73zm0 3.898v3.186c0 .094-.072.149-.16.149h-3.121z"/></svg>