<svg xmlns="http://www.w3.org/2000/svg" viewBox="0 0 75.591 75.591" width="20mm" height="20mm"><path d="M43.245.225h-11c-6 0-10.9 4.9-10.9 10.9v16.5c0 5.2 3.6 9.5 8.5 10.7-.1.3-.1.5-.1.8v3c0 1.5 1 2.9 2.4 3.3.5 2 2.2 3.6 4.3 4.1v24.436c0 .8.69 1.404 1.49 1.404s1.51-.57 1.51-1.37v-24.47c2-.6 3.5-2.1 4-4 1.4-.5 2.4-1.8 2.4-3.3v-3c0-.3 0-.5-.1-.8 4.9-1.1 8.5-5.5 8.5-10.7v-16.6c0-6-4.9-10.9-11-10.9zm-.4 38.9v3c0 .3-.2.5-.5.5h-9.1c-.3 0-.5-.2-.5-.5v-3c0-.3.2-.5.5-.5h9.1c.2 0 .5.2.5.5zm-5.1 7.6c-.9 0-1.8-.4-2.3-1h4.6c-.5.6-1.3 1-2.3 1zm13.5-19.1c0 4.4-3.6 7.9-7.9 7.9h-11.1c-4.4 0-7.9-3.6-7.9-7.9v-16.5c0-4.4 3.6-7.9 7.9-7.9h11c4.4 0 7.9 3.6 7.9 7.9v16.5z"/><path d="M29.845 63.665c-.6-.6-1.5-.6-2.1 0-.6.6-.6 1.5 0 2.1l4.8 4.8c.3.3.7.4 1.1.4.4 0 .8-.1 1.1-.4.6-.6.6-1.5 0-2.1zm12.4 7.4c.4 0 .8-.1 1.1-.4l4.8-4.8c.6-.6.6-1.5 0-2.1-.6-.6-1.5-.6-2.1 0l-4.8 4.8c-.6.6-.6 1.5 0 2.1.2.2.6.4 1 .4zm-9 1.3h-6.8c-.8 0-1.5.7-1.5 1.5s.7 1.5 1.5 1.5h6.8c.8 0 1.5-.7 1.5-1.5s-.7-1.5-1.5-1.5zm16.1 0h-6.8c-.8 0-1.5.7-1.5 1.5s.7 1.5 1.5 1.5h6.8c.8 0 1.5-.7 1.5-1.5s-.6-1.5-1.5-1.5zM2.295 57.402v3.924h16.42v10.171H2.295v3.868h17.252c1.662 0 3-1.338 3-3V60.402c0-1.662-1.338-3-3-3zM73.295 57.402v3.924H56.967v10.171h16.328v3.868H56.043c-1.662 0-3-1.338-3-3V60.402c0-1.662 1.338-3 3-3z"/></svg>