<svg xmlns="http://www.w3.org/2000/svg" viewBox="0 0 75.591 75.591" width="20mm" height="20mm"><path d="M43.245.22h-11c-6 0-10.9 4.9-10.9 10.9v16.5c0 5.2 3.6 9.5 8.5 10.7-.1.3-.1.5-.1.8v3c0 1.5 1 2.9 2.4 3.3.5 2 2.2 3.6 4.3 4.1v11.515c0 .8.688 1.404 1.488 1.404s1.512-.57 1.512-1.37V49.52c2-.6 3.5-2.1 4-4 1.4-.5 2.4-1.8 2.4-3.3v-3c0-.3 0-.5-.1-.8 4.9-1.1 8.5-5.5 8.5-10.7v-16.6c0-6-4.9-10.9-11-10.9zm-.4 38.9v3c0 .3-.2.5-.5.5h-9.1c-.3 0-.5-.2-.5-.5v-3c0-.3.2-.5.5-.5h9.1c.2 0 .5.2.5.5zm-5.1 7.6c-.9 0-1.8-.4-2.3-1h4.6c-.5.6-1.3 1-2.3 1zm13.5-19.1c0 4.4-3.6 7.9-7.9 7.9h-11.1c-4.4 0-7.9-3.6-7.9-7.9v-16.5c0-4.4 3.6-7.9 7.9-7.9h11c4.4 0 7.9 3.6 7.9 7.9v16.5z"/><path d="M29.845 50.13c-.6-.6-1.5-.6-2.1 0-.6.6-.6 1.5 0 2.1l4.8 4.8c.3.3.7.4 1.1.4.4 0 .8-.1 1.1-.4.6-.6.6-1.5 0-2.1zm12.4 7.4c.4 0 .8-.1 1.1-.4l4.8-4.8c.6-.6.6-1.5 0-2.1-.6-.6-1.5-.6-2.1 0l-4.8 4.8c-.6.6-.6 1.5 0 2.1.2.2.6.4 1 .4zm-9 1.3h-6.8c-.8 0-1.5.7-1.5 1.5s.7 1.5 1.5 1.5h6.8c.8 0 1.5-.7 1.5-1.5s-.7-1.5-1.5-1.5zm16.1 0h-6.8c-.8 0-1.5.7-1.5 1.5s.7 1.5 1.5 1.5h6.8c.8 0 1.5-.7 1.5-1.5s-.6-1.5-1.5-1.5z"/><path d="M2.295 57.407v3.203h17.58v5.105h35.84V60.61h17.58v-3.203H56.088a2.99 2.99 0 00-2.992 3v2.322h-30.6v-2.322c0-1.662-1.336-3-2.993-3zm0 14.776v3.187h71v-3.187c-24.198-.065-49.35-.003-71 0z"/></svg>